<?xml version="1.0" standalone="no"?>
<!DOCTYPE svg PUBLIC "-//W3C//DTD SVG 20010904//EN"
 "http://www.w3.org/TR/2001/REC-SVG-20010904/DTD/svg10.dtd">
<svg version="1.0" xmlns="http://www.w3.org/2000/svg"
 width="512.000000pt" height="512.000000pt" viewBox="0 0 512.000000 512.000000"
 preserveAspectRatio="xMidYMid meet">
<metadata>
Created by potrace 1.11, written by Peter Selinger 2001-2013
</metadata>
<g transform="translate(0.000000,512.000000) scale(0.100000,-0.100000)"
fill="#000000" stroke="none">
<path d="M2430 5101 c-239 -64 -430 -280 -606 -686 -24 -54 -61 -158 -95 -262
-26 -79 -37 -102 -49 -98 -72 22 -283 61 -385 70 -38 4 -83 9 -100 11 -37 5
-274 5 -283 0 -4 -2 -32 -7 -62 -10 -173 -21 -336 -99 -434 -206 -263 -293
-121 -783 382 -1318 17 -19 32 -38 32 -42 0 -4 -15 -23 -32 -42 -56 -60 -136
-152 -160 -183 -12 -16 -25 -32 -28 -35 -17 -16 -90 -121 -90 -130 0 -5 -4
-10 -10 -10 -5 0 -10 -4 -10 -9 0 -6 -14 -30 -30 -55 -72 -106 -150 -297 -173
-423 -13 -68 -14 -170 -3 -223 3 -14 7 -36 10 -50 14 -62 72 -158 135 -221 93
-93 196 -141 396 -185 46 -10 363 -13 425 -4 30 5 75 11 100 14 61 7 246 43
293 56 22 6 40 10 42 8 2 -2 24 -68 50 -148 26 -80 51 -149 54 -155 4 -5 16
-32 26 -60 23 -65 106 -229 139 -278 14 -21 26 -40 26 -44 0 -3 29 -42 65 -88
162 -207 325 -297 530 -291 249 8 463 193 645 555 60 120 105 231 155 389 27
83 44 121 52 117 30 -11 266 -57 363 -70 142 -19 439 -14 539 8 329 75 506
280 496 572 -4 92 -16 151 -51 250 -72 199 -209 414 -410 640 l-85 95 87 98
c428 479 564 909 378 1199 -95 149 -258 239 -494 273 -76 11 -329 15 -372 6
-12 -3 -48 -8 -78 -11 -70 -6 -258 -40 -330 -60 -30 -8 -55 -13 -56 -12 0 1
-19 58 -42 127 -224 693 -567 1024 -952 921z m234 -313 c154 -79 310 -334 430
-705 40 -126 40 -123 26 -123 -20 0 -265 -92 -413 -155 l-149 -64 -137 58
c-120 52 -283 114 -393 152 -21 7 -38 17 -38 21 0 4 14 52 31 105 122 380 280
636 444 715 50 24 68 28 109 23 27 -3 67 -15 90 -27z m-1324 -972 c111 -18
122 -20 218 -43 56 -13 71 -20 67 -32 -2 -9 -12 -59 -21 -111 -9 -52 -17 -97
-19 -100 -2 -3 -6 -34 -10 -70 -4 -36 -8 -72 -10 -80 -1 -8 -8 -63 -15 -122
l-13 -108 -126 -93 c-69 -52 -178 -137 -241 -191 l-115 -97 -68 73 c-37 40
-87 98 -110 128 -23 30 -48 62 -56 70 -29 30 -120 178 -159 256 -54 108 -73
173 -76 252 -6 149 78 235 269 275 89 19 352 15 485 -7z m2964 -5 c165 -44
230 -116 228 -253 -1 -183 -164 -467 -427 -745 l-40 -42 -125 105 c-69 58
-178 144 -242 192 -110 81 -118 89 -119 122 -3 89 -70 528 -85 551 -3 5 6 13
20 19 31 12 225 50 289 57 26 2 69 8 95 12 94 15 321 5 406 -18z m-2317 -162
c32 -11 65 -23 73 -26 8 -4 41 -16 73 -27 32 -12 59 -26 60 -31 1 -6 -32 -28
-73 -50 -99 -54 -134 -74 -194 -112 -28 -18 -53 -33 -56 -33 -5 0 18 155 34
235 3 11 5 30 5 43 1 27 6 27 78 1z m1242 -124 c11 -72 21 -136 21 -143 0 -7
-47 17 -105 53 -58 36 -108 65 -110 65 -11 0 -116 63 -112 67 12 11 273 101
278 95 3 -4 16 -66 28 -137z m-479 -216 c245 -129 535 -309 542 -337 16 -66
16 -733 1 -817 -9 -42 -271 -202 -692 -421 l-45 -23 -120 63 c-151 80 -228
122 -286 157 -25 15 -70 42 -100 60 -99 57 -217 138 -222 151 -17 46 -17 789
0 836 12 33 387 255 712 421 18 10 29 5 210 -90z m-1237 -745 c-1 -103 -4
-189 -7 -191 -5 -6 -145 106 -201 159 l-30 29 30 27 c69 62 191 161 200 162 6
0 9 -67 8 -186z m2227 86 c52 -44 96 -84 98 -89 2 -7 -182 -165 -215 -185 -10
-6 -13 34 -13 184 0 223 -14 213 130 90z m-2668 -309 c5 -15 196 -171 337
-276 106 -81 131 -104 132 -124 0 -14 2 -35 4 -46 2 -11 7 -45 10 -75 6 -51 9
-77 20 -155 8 -59 46 -270 51 -286 4 -13 -6 -19 -43 -28 -65 -15 -172 -36
-304 -57 -83 -14 -348 -12 -420 3 -197 40 -285 131 -273 281 15 187 156 431
409 710 56 61 70 71 77 53z m3155 -175 c191 -228 305 -453 305 -605 0 -140
-65 -208 -243 -257 -84 -23 -350 -23 -494 -1 -144 23 -305 59 -300 67 6 10 53
291 65 395 6 50 13 99 15 110 2 11 4 36 4 55 1 33 9 41 144 142 78 59 187 145
242 192 l100 86 43 -46 c23 -26 77 -87 119 -138z m-2249 -478 c23 -12 42 -26
42 -30 0 -4 4 -8 9 -8 5 0 48 -22 95 -48 l87 -49 -142 -52 c-78 -29 -145 -48
-149 -44 -8 8 -40 178 -48 251 l-4 43 33 -21 c19 -11 53 -30 77 -42z m1252
-85 c-12 -65 -23 -126 -26 -135 -5 -15 -15 -13 -102 17 -53 18 -117 42 -141
53 l-45 18 95 52 c51 29 126 72 164 95 46 29 71 40 73 31 2 -7 -6 -66 -18
-131z m-486 -303 c92 -39 214 -86 270 -106 55 -19 104 -38 108 -42 8 -8 -45
-179 -93 -299 -134 -338 -306 -542 -463 -549 -187 -8 -397 277 -545 739 -17
53 -31 101 -31 105 0 4 26 16 58 27 77 26 328 125 427 169 44 20 85 34 90 32
6 -3 86 -36 179 -76z"/>
<path d="M2438 2990 c-153 -45 -264 -157 -311 -318 -19 -61 -16 -184 5 -247
63 -189 237 -314 439 -313 108 1 201 37 284 110 93 82 142 182 152 308 23 309
-271 547 -569 460z"/>
</g>
</svg>
